<svg width="30" height="30" viewBox="0 0 30 30" fill="none" xmlns="http://www.w3.org/2000/svg">
<path d="M23.6933 28.61C20.8529 28.61 18.5421 26.2992 18.5421 23.4589C18.5421 22.7656 18.6807 22.0892 18.9543 21.4484C19.4636 20.2325 20.4566 19.2345 21.6775 18.7139C21.6935 18.7071 21.7101 18.7009 21.7268 18.6956C22.3459 18.4381 23.0071 18.3077 23.6933 18.3077C26.5337 18.3077 28.8448 20.6185 28.8448 23.4589C28.8448 26.2992 26.5337 28.61 23.6933 28.61ZM22.091 19.7922C21.1619 20.2004 20.4076 20.9658 20.0171 21.8977C19.8036 22.3983 19.696 22.9222 19.696 23.4589C19.696 25.6629 21.4893 27.4562 23.6933 27.4562C25.8976 27.4562 27.6909 25.6629 27.6909 23.4589C27.6909 21.2548 25.8976 19.4615 23.6933 19.4615C23.1474 19.4615 22.6234 19.5672 22.1358 19.7753C22.1211 19.7815 22.1062 19.7872 22.091 19.7922Z" fill="#0069B4"/>
<path d="M6.54115 11.4564C6.25015 11.4564 5.9569 11.4325 5.66393 11.3843C3.44131 11.0176 1.69899 9.19186 1.42715 6.94473C1.34715 6.28527 1.39053 5.63031 1.55589 4.99846C1.608 4.79845 1.7635 4.64154 1.96295 4.58746C2.16239 4.53309 2.37592 4.59028 2.52184 4.73648L4.6715 6.88585H6.49805L7.28625 6.09766V4.27111L5.23969 2.22427C5.08926 2.07384 5.03377 1.85271 5.09546 1.64904C5.15715 1.44565 5.32589 1.29241 5.53435 1.25071C5.85577 1.18649 6.19381 1.15381 6.53946 1.15381C9.37985 1.15381 11.6909 3.4646 11.6909 6.30499C11.6909 6.99177 11.5549 7.66673 11.2861 8.31098C10.7678 9.53384 9.77282 10.5311 8.55559 11.05C8.53897 11.057 8.52207 11.0632 8.50517 11.0688C7.88627 11.326 7.21976 11.4564 6.54115 11.4564ZM8.32938 10.5192H8.33502H8.32938ZM2.54297 6.38922C2.54579 6.52753 2.55565 6.66669 2.57255 6.80613C2.78326 8.54761 4.13176 9.96203 5.85183 10.2457C6.62791 10.3736 7.40372 10.2851 8.0967 9.98879C8.11191 9.98231 8.1274 9.97639 8.1429 9.97132C9.06997 9.5637 9.82662 8.79776 10.2227 7.86364C10.4309 7.36418 10.5371 6.83853 10.5371 6.30499C10.5371 4.24914 8.97701 2.55104 6.97863 2.3316L8.27107 3.62432C8.37924 3.7325 8.44009 3.87926 8.44009 4.03223V6.33654C8.44009 6.4895 8.37924 6.63627 8.27107 6.74444L7.14483 7.87068C7.03666 7.97885 6.88989 8.0397 6.73693 8.0397H4.43262C4.27965 8.0397 4.13289 7.97885 4.02471 7.87068L2.54297 6.38922Z" fill="#0069B4"/>
<path d="M21.902 19.8192C21.7541 19.8192 21.6065 19.7629 21.4938 19.6499L18.0844 16.2346C17.8593 16.009 17.8596 15.6439 18.085 15.4188C18.3106 15.194 18.6757 15.1934 18.9008 15.4194L22.3102 18.8347C22.5355 19.0603 22.535 19.4254 22.3096 19.6505C22.1969 19.7629 22.0496 19.8192 21.902 19.8192Z" fill="#0069B4"/>
<path d="M14.1712 12.0887C14.0233 12.0887 13.8757 12.0323 13.763 11.9194L10.3477 8.49809C10.1223 8.27245 10.1229 7.90737 10.3483 7.68229C10.5739 7.45721 10.939 7.45721 11.1641 7.68285L14.5794 11.1041C14.8048 11.3298 14.8042 11.6948 14.5789 11.9199C14.4662 12.0323 14.3186 12.0887 14.1712 12.0887Z" fill="#0069B4"/>
<path d="M11.7485 14.5174C11.6009 14.5174 11.4533 14.4611 11.3406 14.3484L7.91937 10.9275C7.69401 10.7021 7.69401 10.337 7.91937 10.1116C8.14473 9.88629 8.50982 9.88629 8.73518 10.1116L12.1564 13.5326C12.3818 13.758 12.3818 14.1231 12.1564 14.3484C12.0437 14.4611 11.8961 14.5174 11.7485 14.5174Z" fill="#0069B4"/>
<path d="M19.4848 22.254C19.3372 22.254 19.1896 22.1977 19.0769 22.085L15.6559 18.6637C15.4305 18.4384 15.4305 18.0733 15.6559 17.8479C15.8813 17.6226 16.2463 17.6226 16.4717 17.8479L19.8927 21.2692C20.118 21.4945 20.118 21.8596 19.8927 22.085C19.78 22.1977 19.6324 22.254 19.4848 22.254Z" fill="#0069B4"/>
<path d="M24.8539 26.0454H22.5327C22.3265 26.0454 22.1361 25.9355 22.033 25.7569L20.8724 23.7467C20.7696 23.5681 20.7696 23.3484 20.8724 23.1698L22.033 21.1593C22.1361 20.9807 22.3265 20.8708 22.5327 20.8708H24.8539C25.0602 20.8708 25.2506 20.9807 25.3537 21.1593L26.5143 23.1698C26.6171 23.3484 26.6171 23.5681 26.5143 23.7467L25.3537 25.7569C25.2506 25.9355 25.0602 26.0454 24.8539 26.0454ZM22.8657 24.8916H24.521L25.3483 23.4583L24.5207 22.0247H22.866L22.0383 23.4583L22.8657 24.8916Z" fill="#0069B4"/>
<path d="M14.3616 20.2233C14.0216 20.2233 13.6819 20.094 13.423 19.8351L10.1654 16.5835C9.65411 16.0615 9.65411 15.2231 10.1595 14.7079L22.6307 2.23644C24.0234 0.850187 26.2835 0.85075 27.6694 2.23644L27.7554 2.317C29.1568 3.7179 29.1568 5.97855 27.7675 7.36762L15.3002 19.8351C15.0414 20.094 14.7016 20.2233 14.3616 20.2233ZM25.1479 2.35137C24.5307 2.35137 23.9152 2.58575 23.4456 3.05337L10.9784 15.5209C10.9147 15.5857 10.9147 15.6995 10.9835 15.7696L14.2388 19.0193C14.3075 19.0881 14.4157 19.0881 14.4844 19.0193L26.9517 6.55181C27.4063 6.09715 27.6568 5.49205 27.6568 4.84837C27.6568 4.2044 27.4063 3.59931 26.9517 3.14464L26.8657 3.06407C26.39 2.58828 25.7682 2.35137 25.1479 2.35137Z" fill="#0069B4"/>
<path d="M3.24499 28.8461C3.09569 28.8461 2.94808 28.7884 2.83681 28.6771L1.32464 27.1647C1.1359 26.9759 1.10125 26.6827 1.24069 26.4553L3.18555 23.2828C3.38584 22.9561 3.71712 22.729 4.09404 22.6597C4.46983 22.5893 4.86027 22.6848 5.16394 22.9192C5.24141 22.9792 5.28253 23.0152 5.32085 23.0538L6.7747 24.5077C6.80513 24.5381 6.83414 24.5702 6.86175 24.6037L7.0395 24.8218C7.28599 25.1237 7.38994 25.5178 7.32486 25.9021C7.25951 26.2869 7.03161 26.6244 6.69893 26.8283L3.54613 28.7611C3.45289 28.8183 3.34866 28.8461 3.24499 28.8461ZM2.46215 26.6706L3.33091 27.5396L6.0958 25.8449C6.16229 25.8041 6.18144 25.7424 6.18708 25.7091C6.19271 25.6762 6.19496 25.6117 6.14538 25.5508L5.9589 25.3235L4.50504 23.8696C4.50448 23.8693 4.45912 23.8327 4.45856 23.8324C4.39828 23.7857 4.33574 23.7899 4.30222 23.7947C4.26982 23.8006 4.20925 23.8203 4.16925 23.886L2.46215 26.6706Z" fill="#0069B4"/>
<path d="M4.64664 23.7724C4.49903 23.7724 4.35142 23.7161 4.23874 23.6034C4.01338 23.378 4.01338 23.0126 4.23874 22.7876L10.715 16.3124C10.9404 16.087 11.3055 16.087 11.5308 16.3124C11.7562 16.5378 11.7562 16.9031 11.5308 17.1282L5.05454 23.6034C4.94186 23.7161 4.79425 23.7724 4.64664 23.7724Z" fill="#0069B4"/>
<path d="M6.80513 25.9309C6.65752 25.9309 6.50991 25.8746 6.39723 25.7619C6.17187 25.5365 6.17187 25.1712 6.39723 24.9461L12.8735 18.4712C13.0989 18.2458 13.464 18.2458 13.6893 18.4712C13.9147 18.6966 13.9147 19.0619 13.6893 19.287L7.21304 25.7619C7.10036 25.8746 6.95274 25.9309 6.80513 25.9309Z" fill="#0069B4"/>
<path d="M14.3601 16.2177C14.2125 16.2177 14.0649 16.1614 13.9522 16.0487C13.7269 15.8233 13.7269 15.4582 13.9522 15.2329L24.745 4.44008C24.9704 4.21472 25.3355 4.21472 25.5608 4.44008C25.7862 4.66544 25.7862 5.03052 25.5608 5.25588L14.768 16.0487C14.6553 16.1614 14.5077 16.2177 14.3601 16.2177Z" fill="#0069B4"/>
</svg>
